<svg width="16" height="15" viewBox="0 0 16 15" fill="none" xmlns="http://www.w3.org/2000/svg">
<path d="M7.9999 9C8.42425 9 8.83121 8.84196 9.13127 8.56066C9.43133 8.27936 9.5999 7.89782 9.5999 7.5C9.5999 7.10218 9.43133 6.72064 9.13127 6.43934C8.83121 6.15804 8.42425 6 7.9999 6C7.57556 6 7.16859 6.15804 6.86853 6.43934C6.56847 6.72064 6.3999 7.10218 6.3999 7.5C6.3999 7.89782 6.56847 8.27936 6.86853 8.56066C7.16859 8.84196 7.57556 9 7.9999 9Z" fill="#3F3F46"/>
<path fill-rule="evenodd" clip-rule="evenodd" d="M0.366211 7.5C1.38541 4.45725 4.41741 2.25 7.99981 2.25C11.5822 2.25 14.6142 4.45725 15.6334 7.5C14.6142 10.5428 11.5822 12.75 7.99981 12.75C4.41741 12.75 1.38541 10.5428 0.366211 7.5ZM11.1998 7.5C11.1998 8.29565 10.8627 9.05871 10.2626 9.62132C9.66244 10.1839 8.8485 10.5 7.99981 10.5C7.15112 10.5 6.33718 10.1839 5.73707 9.62132C5.13695 9.05871 4.79981 8.29565 4.79981 7.5C4.79981 6.70435 5.13695 5.94129 5.73707 5.37868C6.33718 4.81607 7.15112 4.5 7.99981 4.5C8.8485 4.5 9.66244 4.81607 10.2626 5.37868C10.8627 5.94129 11.1998 6.70435 11.1998 7.5Z" fill="#3F3F46"/>
</svg>
