<svg width="17" height="16" viewBox="0 0 17 16" fill="none" xmlns="http://www.w3.org/2000/svg">
<path d="M16.1206 7.5C16.1206 7.89783 15.9626 8.27936 15.6813 8.56066C15.4 8.84196 15.0184 9 14.6206 9C14.2228 9 13.8413 8.84196 13.5599 8.56066C13.2786 8.27936 13.1206 7.89783 13.1206 7.5V1.5C13.1206 1.10218 13.2786 0.720645 13.5599 0.43934C13.8413 0.158036 14.2228 3.73082e-07 14.6206 3.73082e-07C15.0184 3.73082e-07 15.4 0.158036 15.6813 0.43934C15.9626 0.720645 16.1206 1.10218 16.1206 1.5V7.5ZM12.1206 7.667V2.237C12.1209 1.86544 12.0176 1.50116 11.8225 1.18499C11.6273 0.86882 11.3479 0.613273 11.0156 0.447L10.9656 0.422C10.4098 0.144217 9.79695 -0.000267964 9.17561 3.73082e-07H3.76061C3.29808 -0.000182829 2.84978 0.159952 2.49205 0.45314C2.13432 0.746328 1.88926 1.15444 1.79861 1.608L0.598607 7.608C0.5406 7.89821 0.547723 8.19768 0.619462 8.4848C0.691201 8.77193 0.825768 9.03955 1.01346 9.26838C1.20115 9.4972 1.43728 9.68152 1.70482 9.80803C1.97237 9.93455 2.26466 10.0001 2.56061 10H6.12061V14C6.12061 14.5304 6.33132 15.0391 6.70639 15.4142C7.08147 15.7893 7.59017 16 8.12061 16C8.38582 16 8.64018 15.8946 8.82771 15.7071C9.01525 15.5196 9.12061 15.2652 9.12061 15V14.333C9.12061 13.4675 9.40132 12.6254 9.92061 11.933L11.3206 10.067C11.8399 9.37462 12.1206 8.53248 12.1206 7.667V7.667Z" fill="#3F3F46"/>
</svg>
